<svg version="1.1" xmlns="http://www.w3.org/2000/svg" width="826pt" height="522.4pt" viewBox="0 0 826 522.4"><style type="text/css">.dashed {stroke-dasharray: 5,5} .dotted {stroke-dasharray: 1,5} .overlay {fill: none; pointer-events: all}</style><g><g transform="translate(4, 518.4000244140625)"><polygon stroke="#fffffe" stroke-opacity="0" fill="#ffffff" points="-4,4 -4,-518.4 822,-518.4 822,4"></polygon><g class="subgraph"><title>cluster_CTWING</title><path stroke="#000000" fill="none" d="M 628,-321.6 L 628,-398.4,810,-398.4,810,-321.6 Z"></path><text x="719" y="-381.8" text-anchor="middle" font-family="'Times-Roman',serif" font-size="14" fill="#000000">CTWING</text></g><g class="subgraph"><title>cluster_ALIIOT</title><path stroke="#000000" fill="none" d="M 8,-321.6 L 8,-398.4,144,-398.4,144,-321.6 Z"></path><text x="76" y="-381.8" text-anchor="middle" font-family="'Times-Roman',serif" font-size="14" fill="#000000">ALIIOT</text></g><g class="subgraph"><title>cluster_MQTT</title><path stroke="#000000" fill="none" d="M 152,-321.6 L 152,-398.4,312,-398.4,312,-321.6 Z"></path><text x="232" y="-381.8" text-anchor="middle" font-family="'Times-Roman',serif" font-size="14" fill="#000000">MQTT</text></g><g class="subgraph"><title>cluster_HTTP</title><path stroke="#000000" fill="none" d="M 320,-321.6 L 320,-398.4,472,-398.4,472,-321.6 Z"></path><text x="396" y="-381.8" text-anchor="middle" font-family="'Times-Roman',serif" font-size="14" fill="#000000">HTTP</text></g><g class="subgraph"><title>cluster_TCP</title><path stroke="#000000" fill="none" d="M 480,-321.6 L 480,-398.4,620,-398.4,620,-321.6 Z"></path><text x="550" y="-381.8" text-anchor="middle" font-family="'Times-Roman',serif" font-size="14" fill="#000000">TCP</text></g><g class="subgraph"><title>cluster_Application</title><path stroke="#000000" fill="none" d="M 302,-8 L 302,-156.8,585,-156.8,585,-8 Z"></path><text x="443.5" y="-140.2" text-anchor="middle" font-family="'Times-Roman',serif" font-size="14" fill="#000000">应用层</text></g><g class="subgraph"><title>cluster_IOTLITE</title><path stroke="#000000" fill="none" d="M 173,-164.8 L 173,-313.6,619,-313.6,619,-164.8 Z"></path><text x="396" y="-297" text-anchor="middle" font-family="'Times-Roman',serif" font-size="14" fill="#000000">交互层</text></g><g class="node"><title>CTWING_adapter</title><path stroke="#000000" fill="none" d="M 719,-347.6 m -82.79,0 a 82.79,18 0 1,0 165.58,0 a 82.79,18 0 1,0 -165.58,0"></path><text x="719" y="-343.4" text-anchor="middle" font-family="'Times-Roman',serif" font-size="14" fill="#000000">CTWING_adapter</text></g><g class="node"><title>ALI_adapter</title><path stroke="#000000" fill="none" d="M 76,-347.6 m -60.23,0 a 60.23,18 0 1,0 120.46,0 a 60.23,18 0 1,0 -120.46,0"></path><text x="76" y="-343.4" text-anchor="middle" font-family="'Times-Roman',serif" font-size="14" fill="#000000">ALI_adapter</text></g><g class="node"><title>MQTT_adapter</title><path stroke="#000000" fill="none" d="M 232,-347.6 m -71.77,0 a 71.77,18 0 1,0 143.54,0 a 71.77,18 0 1,0 -143.54,0"></path><text x="232" y="-343.4" text-anchor="middle" font-family="'Times-Roman',serif" font-size="14" fill="#000000">MQTT_adapter</text></g><g class="node"><title>HTTP_adapter</title><path stroke="#000000" fill="none" d="M 396,-347.6 m -68.34,0 a 68.34,18 0 1,0 136.68,0 a 68.34,18 0 1,0 -136.68,0"></path><text x="396" y="-343.4" text-anchor="middle" font-family="'Times-Roman',serif" font-size="14" fill="#000000">HTTP_adapter</text></g><g class="node"><title>TCP_adapter</title><path stroke="#000000" fill="none" d="M 550,-347.6 m -61.98,0 a 61.98,18 0 1,0 123.96,0 a 61.98,18 0 1,0 -123.96,0"></path><text x="550" y="-343.4" text-anchor="middle" font-family="'Times-Roman',serif" font-size="14" fill="#000000">TCP_adapter</text></g><g class="node"><title>Application_Layer</title><path stroke="#000000" fill="none" d="M 443,-106 m -83.95,0 a 83.95,18 0 1,0 167.9,0 a 83.95,18 0 1,0 -167.9,0"></path><text x="443" y="-101.8" text-anchor="middle" font-family="'Times-Roman',serif" font-size="14" fill="#000000">Application_Layer</text></g><g class="node"><title>dashboard_app</title><path stroke="#000000" fill="none" d="M 379,-34 m -69.49,0 a 69.49,18 0 1,0 138.98,0 a 69.49,18 0 1,0 -138.98,0"></path><text x="379" y="-29.8" text-anchor="middle" font-family="'Times-Roman',serif" font-size="14" fill="#000000">dashboard_app</text></g><g class="node"><title>billing_app</title><path stroke="#000000" fill="none" d="M 522,-34 m -55.06,0 a 55.06,18 0 1,0 110.12,0 a 55.06,18 0 1,0 -110.12,0"></path><text x="522" y="-29.8" text-anchor="middle" font-family="'Times-Roman',serif" font-size="14" fill="#000000">billing_app</text></g><g class="node"><title>iotlite_agent_2</title><path stroke="#000000" fill="none" d="M 386,-262.8 m -68.94,0 a 68.94,18 0 1,0 137.88,0 a 68.94,18 0 1,0 -137.88,0"></path><text x="386" y="-258.6" text-anchor="middle" font-family="'Times-Roman',serif" font-size="14" fill="#000000">iotlite_agent_2</text></g><g class="node"><title>iotlite_group_agent</title><path stroke="#000000" fill="none" d="M 309,-190.8 m -86.84,0 a 86.84,18 0 1,0 173.68,0 a 86.84,18 0 1,0 -173.68,0"></path><text x="309" y="-186.6" text-anchor="middle" font-family="'Times-Roman',serif" font-size="14" fill="#000000">iotlite_group_agent</text></g><g class="node"><title>iotlite_agent_1</title><path stroke="#000000" fill="none" d="M 542,-262.8 m -68.94,0 a 68.94,18 0 1,0 137.88,0 a 68.94,18 0 1,0 -137.88,0"></path><text x="542" y="-258.6" text-anchor="middle" font-family="'Times-Roman',serif" font-size="14" fill="#000000">iotlite_agent_1</text></g><g class="node"><title>iotlite_agent</title><path stroke="#000000" fill="none" d="M 240,-262.8 m -59.13,0 a 59.13,18 0 1,0 118.26,0 a 59.13,18 0 1,0 -118.26,0"></path><text x="240" y="-258.6" text-anchor="middle" font-family="'Times-Roman',serif" font-size="14" fill="#000000">iotlite_agent</text></g><g class="node"><title>device_0</title><path stroke="#000000" fill="none" d="M 232,-496.4 m -45.79,0 a 45.79,18 0 1,0 91.58,0 a 45.79,18 0 1,0 -91.58,0"></path><text x="232" y="-492.2" text-anchor="middle" font-family="'Times-Roman',serif" font-size="14" fill="#000000">device_0</text></g><g class="node"><title>gateway0</title><path stroke="#000000" fill="none" d="M 232,-424.4 m -48.07,0 a 48.07,18 0 1,0 96.14,0 a 48.07,18 0 1,0 -96.14,0"></path><text x="232" y="-420.2" text-anchor="middle" font-family="'Times-Roman',serif" font-size="14" fill="#000000">gateway0</text></g><g class="node"><title>device_1</title><path stroke="#000000" fill="none" d="M 396,-496.4 m -45.79,0 a 45.79,18 0 1,0 91.58,0 a 45.79,18 0 1,0 -91.58,0"></path><text x="396" y="-492.2" text-anchor="middle" font-family="'Times-Roman',serif" font-size="14" fill="#000000">device_1</text></g><g class="node"><title>gateway1</title><path stroke="#000000" fill="none" d="M 396,-424.4 m -48.07,0 a 48.07,18 0 1,0 96.14,0 a 48.07,18 0 1,0 -96.14,0"></path><text x="396" y="-420.2" text-anchor="middle" font-family="'Times-Roman',serif" font-size="14" fill="#000000">gateway1</text></g><g class="node"><title>device_2</title><path stroke="#000000" fill="none" d="M 76,-496.4 m -45.79,0 a 45.79,18 0 1,0 91.58,0 a 45.79,18 0 1,0 -91.58,0"></path><text x="76" y="-492.2" text-anchor="middle" font-family="'Times-Roman',serif" font-size="14" fill="#000000">device_2</text></g><g class="node"><title>gateway2</title><path stroke="#000000" fill="none" d="M 76,-424.4 m -48.07,0 a 48.07,18 0 1,0 96.14,0 a 48.07,18 0 1,0 -96.14,0"></path><text x="76" y="-420.2" text-anchor="middle" font-family="'Times-Roman',serif" font-size="14" fill="#000000">gateway2</text></g><g class="node"><title>device_3</title><path stroke="#000000" fill="none" d="M 719,-496.4 m -45.79,0 a 45.79,18 0 1,0 91.58,0 a 45.79,18 0 1,0 -91.58,0"></path><text x="719" y="-492.2" text-anchor="middle" font-family="'Times-Roman',serif" font-size="14" fill="#000000">device_3</text></g><g class="node"><title>gateway3</title><path stroke="#000000" fill="none" d="M 719,-424.4 m -48.07,0 a 48.07,18 0 1,0 96.14,0 a 48.07,18 0 1,0 -96.14,0"></path><text x="719" y="-420.2" text-anchor="middle" font-family="'Times-Roman',serif" font-size="14" fill="#000000">gateway3</text></g><g class="node"><title>device_4</title><path stroke="#000000" fill="none" d="M 550,-496.4 m -45.79,0 a 45.79,18 0 1,0 91.58,0 a 45.79,18 0 1,0 -91.58,0"></path><text x="550" y="-492.2" text-anchor="middle" font-family="'Times-Roman',serif" font-size="14" fill="#000000">device_4</text></g><g class="node"><title>gateway4</title><path stroke="#000000" fill="none" d="M 550,-424.4 m -48.07,0 a 48.07,18 0 1,0 96.14,0 a 48.07,18 0 1,0 -96.14,0"></path><text x="550" y="-420.2" text-anchor="middle" font-family="'Times-Roman',serif" font-size="14" fill="#000000">gateway4</text></g><g class="relation" style="opacity: 1;"><title>Application_Layer-&gt;dashboard_app</title><path stroke="#000000" fill="none" d="M 427.51,-88.05 C 419.65,-79.46,409.95,-68.86,401.31,-59.4"></path><path class="solid" stroke="#000000" fill="#000000" d="M 403.68,-56.81 L 394.35,-51.79,398.51,-61.53 Z"></path></g><g class="relation" style="opacity: 1;"><title>Application_Layer-&gt;billing_app</title><path stroke="#000000" fill="none" d="M 461.72,-88.41 C 471.93,-79.37,484.72,-68.03,495.9,-58.13"></path><path class="solid" stroke="#000000" fill="#000000" d="M 498.52,-60.48 L 503.69,-51.23,493.88,-55.24 Z"></path></g><g class="relation" style="opacity: 1;"><title>iotlite_agent_2-&gt;iotlite_group_agent</title><path stroke="#000000" fill="none" d="M 367.75,-245.21 C 357.95,-236.3,345.69,-225.16,334.91,-215.36"></path><path class="solid" stroke="#000000" fill="#000000" d="M 337.14,-212.65 L 327.38,-208.51,332.43,-217.83 Z"></path></g><g class="relation" style="opacity: 1;"><title>iotlite_agent_1-&gt;iotlite_group_agent</title><path stroke="#000000" fill="none" d="M 498.45,-248.72 C 461.09,-237.49,406.99,-221.24,366.16,-208.97"></path><path class="solid" stroke="#000000" fill="#000000" d="M 366.93,-205.55 L 356.34,-206.02,364.91,-212.25 Z"></path></g><g class="relation" style="opacity: 1;"><title>iotlite_agent-&gt;iotlite_group_agent</title><path stroke="#000000" fill="none" d="M 256.35,-245.21 C 264.91,-236.53,275.54,-225.75,285.01,-216.14"></path><path class="solid" stroke="#000000" fill="#000000" d="M 287.76,-218.34 L 292.29,-208.76,282.77,-213.42 Z"></path></g><g class="relation" style="opacity: 1;"><title>CTWING_adapter-&gt;iotlite_agent_1</title><path stroke="#000000" fill="none" d="M 676.33,-326.64 C 648.11,-313.44,611.31,-296.22,583.36,-283.15"></path><path class="solid" stroke="#000000" fill="#000000" d="M 584.79,-279.95 L 574.25,-278.89,581.82,-286.29 Z"></path><path class="solid" stroke="#000000" fill="#000000" d="M 675.17,-329.96 L 685.71,-331.03,678.13,-323.62 Z"></path></g><g class="relation" style="opacity: 1;"><title>CTWING_adapter-&gt;iotlite_agent</title><path stroke="#000000" fill="none" d="M 664.23,-329.88 C 651.17,-326.53,637.19,-323.48,624,-321.6,589.23,-316.65,341.24,-324.94,308,-313.6,291.8,-308.07,276.2,-297.2,264.04,-287.01"></path><path class="solid" stroke="#000000" fill="#000000" d="M 266.03,-284.11 L 256.21,-280.15,261.42,-289.37 Z"></path><path class="solid" stroke="#000000" fill="#000000" d="M 663.45,-333.29 L 674.02,-332.48,665.25,-326.53 Z"></path></g><g class="relation" style="opacity: 1;"><title>ALI_adapter-&gt;iotlite_agent_1</title><path stroke="#000000" fill="none" d="M 119.02,-329.25 C 128.43,-326.14,138.43,-323.34,148,-321.6,182.56,-315.32,430.41,-323.87,464,-313.6,482.32,-308,500.5,-296.81,514.69,-286.45"></path><path class="solid" stroke="#000000" fill="#000000" d="M 517.12,-289 L 522.98,-280.17,512.9,-283.42 Z"></path><path class="solid" stroke="#000000" fill="#000000" d="M 117.78,-325.97 L 109.48,-332.57,120.08,-332.59 Z"></path></g><g class="relation" style="opacity: 1;"><title>ALI_adapter-&gt;iotlite_agent</title><path stroke="#000000" fill="none" d="M 114.47,-327.18 C 140.66,-313.96,175.19,-296.52,201.41,-283.29"></path><path class="solid" stroke="#000000" fill="#000000" d="M 203.31,-286.25 L 210.66,-278.61,200.15,-280 Z"></path><path class="solid" stroke="#000000" fill="#000000" d="M 112.67,-324.17 L 105.32,-331.8,115.82,-330.41 Z"></path></g><g class="relation" style="opacity: 1;"><title>MQTT_adapter-&gt;iotlite_agent_1</title><path stroke="#000000" fill="none" d="M 281.72,-329.71 C 292.88,-326.5,304.75,-323.55,316,-321.6,348.45,-315.97,432.64,-323.68,464,-313.6,482.11,-307.78,500.16,-296.68,514.32,-286.44"></path><path class="solid" stroke="#000000" fill="#000000" d="M 516.71,-289.03 L 522.61,-280.23,512.51,-283.43 Z"></path><path class="solid" stroke="#000000" fill="#000000" d="M 280.71,-326.35 L 272.13,-332.56,282.71,-333.06 Z"></path></g><g class="relation" style="opacity: 1;"><title>MQTT_adapter-&gt;iotlite_agent</title><path stroke="#000000" fill="none" d="M 234.63,-319.4 C 235.51,-310.29,236.49,-300.14,237.37,-291.03"></path><path class="solid" stroke="#000000" fill="#000000" d="M 240.87,-291.22 L 238.34,-280.93,233.9,-290.55 Z"></path><path class="solid" stroke="#000000" fill="#000000" d="M 231.14,-319.15 L 233.66,-329.44,238.1,-319.83 Z"></path></g><g class="relation" style="opacity: 1;"><title>HTTP_adapter-&gt;iotlite_agent_1</title><path stroke="#000000" fill="none" d="M 437.58,-327.37 C 446.4,-323.03,455.59,-318.31,464,-313.6,479.41,-304.98,495.97,-294.58,509.85,-285.52"></path><path class="solid" stroke="#000000" fill="#000000" d="M 512.12,-288.21 L 518.54,-279.79,508.27,-282.37 Z"></path><path class="solid" stroke="#000000" fill="#000000" d="M 436.03,-324.23 L 428.56,-331.74,439.09,-330.53 Z"></path></g><g class="relation" style="opacity: 1;"><title>HTTP_adapter-&gt;iotlite_agent</title><path stroke="#000000" fill="none" d="M 344.19,-329.86 C 332.03,-325.2,319.33,-319.72,308,-313.6,293.67,-305.86,278.95,-295.43,266.88,-286.12"></path><path class="solid" stroke="#000000" fill="#000000" d="M 269.01,-283.34 L 258.99,-279.9,264.67,-288.84 Z"></path><path class="solid" stroke="#000000" fill="#000000" d="M 343.19,-333.22 L 353.78,-333.41,345.62,-326.66 Z"></path></g><g class="relation" style="opacity: 1;"><title>TCP_adapter-&gt;iotlite_agent_1</title><path stroke="#000000" fill="none" d="M 547.37,-319.4 C 546.49,-310.29,545.51,-300.14,544.63,-291.03"></path><path class="solid" stroke="#000000" fill="#000000" d="M 548.1,-290.55 L 543.66,-280.93,541.13,-291.22 Z"></path><path class="solid" stroke="#000000" fill="#000000" d="M 543.9,-319.83 L 548.34,-329.44,550.86,-319.15 Z"></path></g><g class="relation" style="opacity: 1;"><title>TCP_adapter-&gt;iotlite_agent</title><path stroke="#000000" fill="none" d="M 505.43,-329.32 C 495.85,-326.24,485.69,-323.43,476,-321.6,439.27,-314.66,343.24,-326.06,308,-313.6,291.97,-307.93,276.48,-297.15,264.35,-287.07"></path><path class="solid" stroke="#000000" fill="#000000" d="M 266.36,-284.18 L 256.52,-280.27,261.78,-289.47 Z"></path><path class="solid" stroke="#000000" fill="#000000" d="M 504.56,-332.72 L 515.15,-332.6,506.8,-326.09 Z"></path></g><g class="relation" style="opacity: 1;"><title>iotlite_agent_2-&gt;Application_Layer</title><path stroke="#000000" fill="none" d="M 408.11,-245.74 C 419.19,-236.34,431.59,-223.44,438,-208.8,448.38,-185.09,448.53,-155.23,446.75,-134"></path><path class="solid" stroke="#000000" fill="#000000" d="M 450.23,-133.64 L 445.72,-124.05,443.27,-134.35 Z"></path></g><g class="relation" style="opacity: 1;"><title>iotlite_group_agent-&gt;Application_Layer</title><path stroke="#000000" fill="none" d="M 335.15,-173.64 C 356,-160.76,385.37,-142.61,408.2,-128.5"></path><path class="solid" stroke="#000000" fill="#000000" d="M 410.24,-131.35 L 416.91,-123.12,406.56,-125.4 Z"></path></g><g class="relation" style="opacity: 1;"><title>iotlite_agent_1-&gt;Application_Layer</title><path stroke="#000000" fill="none" d="M 531.22,-244.94 C 513.98,-217.98,480.07,-164.97,459.69,-133.09"></path><path class="solid" stroke="#000000" fill="#000000" d="M 462.41,-130.85 L 454.07,-124.31,456.51,-134.62 Z"></path></g><g class="relation" style="opacity: 1;"><title>iotlite_agent-&gt;Application_Layer</title><path stroke="#000000" fill="none" d="M 282.67,-250.18 C 328.47,-237.39,395.91,-217.47,405,-208.8,425.62,-189.12,435.13,-157.22,439.47,-134.37"></path><path class="solid" stroke="#000000" fill="#000000" d="M 442.96,-134.72 L 441.17,-124.28,436.06,-133.56 Z"></path></g><g class="relation" style="opacity: 1;"><title>device_0-&gt;gateway0</title><path stroke="#000000" fill="none" d="M 232,-468.07 C 232,-463.09,232,-457.89,232,-452.91"></path><path class="solid" stroke="#000000" fill="#000000" d="M 235.5,-452.5 L 232,-442.5,228.5,-452.5 Z"></path><path class="solid" stroke="#000000" fill="#000000" d="M 228.5,-468.1 L 232,-478.1,235.5,-468.1 Z"></path></g><g class="relation" style="opacity: 1;"><title>gateway0-&gt;MQTT_adapter</title><path stroke="#000000" fill="none" d="M 232,-396.05 C 232,-389.58,232,-382.68,232,-376.21"></path><path class="solid" stroke="#000000" fill="#000000" d="M 235.5,-375.85 L 232,-365.85,228.5,-375.85 Z"></path><path class="solid" stroke="#000000" fill="#000000" d="M 228.5,-396.05 L 232,-406.05,235.5,-396.05 Z"></path></g><g class="relation" style="opacity: 1;"><title>device_1-&gt;gateway1</title><path stroke="#000000" fill="none" d="M 396,-468.07 C 396,-463.09,396,-457.89,396,-452.91"></path><path class="solid" stroke="#000000" fill="#000000" d="M 399.5,-452.5 L 396,-442.5,392.5,-452.5 Z"></path><path class="solid" stroke="#000000" fill="#000000" d="M 392.5,-468.1 L 396,-478.1,399.5,-468.1 Z"></path></g><g class="relation" style="opacity: 1;"><title>gateway1-&gt;HTTP_adapter</title><path stroke="#000000" fill="none" d="M 396,-396.05 C 396,-389.58,396,-382.68,396,-376.21"></path><path class="solid" stroke="#000000" fill="#000000" d="M 399.5,-375.85 L 396,-365.85,392.5,-375.85 Z"></path><path class="solid" stroke="#000000" fill="#000000" d="M 392.5,-396.05 L 396,-406.05,399.5,-396.05 Z"></path></g><g class="relation" style="opacity: 1;"><title>device_2-&gt;gateway2</title><path stroke="#000000" fill="none" d="M 76,-468.07 C 76,-463.09,76,-457.89,76,-452.91"></path><path class="solid" stroke="#000000" fill="#000000" d="M 79.5,-452.5 L 76,-442.5,72.5,-452.5 Z"></path><path class="solid" stroke="#000000" fill="#000000" d="M 72.5,-468.1 L 76,-478.1,79.5,-468.1 Z"></path></g><g class="relation" style="opacity: 1;"><title>gateway2-&gt;ALI_adapter</title><path stroke="#000000" fill="none" d="M 76,-396.05 C 76,-389.58,76,-382.68,76,-376.21"></path><path class="solid" stroke="#000000" fill="#000000" d="M 79.5,-375.85 L 76,-365.85,72.5,-375.85 Z"></path><path class="solid" stroke="#000000" fill="#000000" d="M 72.5,-396.05 L 76,-406.05,79.5,-396.05 Z"></path></g><g class="relation" style="opacity: 1;"><title>device_3-&gt;gateway3</title><path stroke="#000000" fill="none" d="M 719,-468.07 C 719,-463.09,719,-457.89,719,-452.91"></path><path class="solid" stroke="#000000" fill="#000000" d="M 722.5,-452.5 L 719,-442.5,715.5,-452.5 Z"></path><path class="solid" stroke="#000000" fill="#000000" d="M 715.5,-468.1 L 719,-478.1,722.5,-468.1 Z"></path></g><g class="relation" style="opacity: 1;"><title>gateway3-&gt;CTWING_adapter</title><path stroke="#000000" fill="none" d="M 719,-396.05 C 719,-389.58,719,-382.68,719,-376.21"></path><path class="solid" stroke="#000000" fill="#000000" d="M 722.5,-375.85 L 719,-365.85,715.5,-375.85 Z"></path><path class="solid" stroke="#000000" fill="#000000" d="M 715.5,-396.05 L 719,-406.05,722.5,-396.05 Z"></path></g><g class="relation" style="opacity: 1;"><title>device_4-&gt;gateway4</title><path stroke="#000000" fill="none" d="M 550,-468.07 C 550,-463.09,550,-457.89,550,-452.91"></path><path class="solid" stroke="#000000" fill="#000000" d="M 553.5,-452.5 L 550,-442.5,546.5,-452.5 Z"></path><path class="solid" stroke="#000000" fill="#000000" d="M 546.5,-468.1 L 550,-478.1,553.5,-468.1 Z"></path></g><g class="relation" style="opacity: 1;"><title>gateway4-&gt;TCP_adapter</title><path stroke="#000000" fill="none" d="M 550,-396.05 C 550,-389.58,550,-382.68,550,-376.21"></path><path class="solid" stroke="#000000" fill="#000000" d="M 553.5,-375.85 L 550,-365.85,546.5,-375.85 Z"></path><path class="solid" stroke="#000000" fill="#000000" d="M 546.5,-396.05 L 550,-406.05,553.5,-396.05 Z"></path></g></g></g></svg>