<svg version="1.1" xmlns="http://www.w3.org/2000/svg" width="826pt" height="493.6pt" viewBox="0 0 826 493.6"><style type="text/css">.dashed {stroke-dasharray: 5,5} .dotted {stroke-dasharray: 1,5} .overlay {fill: none; pointer-events: all}</style><g><g transform="translate(4, 489.6000061035156)"><polygon stroke="#fffffe" stroke-opacity="0" fill="#ffffff" points="-4,4 -4,-489.6 822,-489.6 822,4"></polygon><g class="subgraph"><title>cluster_CTWING</title><path stroke="#000000" fill="none" d="M 628,-292.8 L 628,-369.6,810,-369.6,810,-292.8 Z"></path><text x="719" y="-353" text-anchor="middle" font-family="'Times-Roman',serif" font-size="14" fill="#000000">CTWING</text></g><g class="subgraph"><title>cluster_ALIIOT</title><path stroke="#000000" fill="none" d="M 8,-292.8 L 8,-369.6,144,-369.6,144,-292.8 Z"></path><text x="76" y="-353" text-anchor="middle" font-family="'Times-Roman',serif" font-size="14" fill="#000000">ALIIOT</text></g><g class="subgraph"><title>cluster_MQTT</title><path stroke="#000000" fill="none" d="M 152,-292.8 L 152,-369.6,312,-369.6,312,-292.8 Z"></path><text x="232" y="-353" text-anchor="middle" font-family="'Times-Roman',serif" font-size="14" fill="#000000">MQTT</text></g><g class="subgraph"><title>cluster_HTTP</title><path stroke="#000000" fill="none" d="M 320,-292.8 L 320,-369.6,472,-369.6,472,-292.8 Z"></path><text x="396" y="-353" text-anchor="middle" font-family="'Times-Roman',serif" font-size="14" fill="#000000">HTTP</text></g><g class="subgraph"><title>cluster_TCP</title><path stroke="#000000" fill="none" d="M 480,-292.8 L 480,-369.6,620,-369.6,620,-292.8 Z"></path><text x="550" y="-353" text-anchor="middle" font-family="'Times-Roman',serif" font-size="14" fill="#000000">TCP</text></g><g class="subgraph"><title>cluster_IOTLITE</title><path stroke="#000000" fill="none" d="M 173,-136 L 173,-284.8,619,-284.8,619,-136 Z"></path><text x="396" y="-268.2" text-anchor="middle" font-family="'Times-Roman',serif" font-size="14" fill="#000000">IOTLITE</text></g><g class="node"><title>CTWING_adapter</title><path stroke="#000000" fill="none" d="M 719,-318.8 m -82.79,0 a 82.79,18 0 1,0 165.58,0 a 82.79,18 0 1,0 -165.58,0"></path><text x="719" y="-314.6" text-anchor="middle" font-family="'Times-Roman',serif" font-size="14" fill="#000000">CTWING_adapter</text></g><g class="node"><title>ALI_adapter</title><path stroke="#000000" fill="none" d="M 76,-318.8 m -60.23,0 a 60.23,18 0 1,0 120.46,0 a 60.23,18 0 1,0 -120.46,0"></path><text x="76" y="-314.6" text-anchor="middle" font-family="'Times-Roman',serif" font-size="14" fill="#000000">ALI_adapter</text></g><g class="node"><title>MQTT_adapter</title><path stroke="#000000" fill="none" d="M 232,-318.8 m -71.77,0 a 71.77,18 0 1,0 143.54,0 a 71.77,18 0 1,0 -143.54,0"></path><text x="232" y="-314.6" text-anchor="middle" font-family="'Times-Roman',serif" font-size="14" fill="#000000">MQTT_adapter</text></g><g class="node"><title>HTTP_adapter</title><path stroke="#000000" fill="none" d="M 396,-318.8 m -68.34,0 a 68.34,18 0 1,0 136.68,0 a 68.34,18 0 1,0 -136.68,0"></path><text x="396" y="-314.6" text-anchor="middle" font-family="'Times-Roman',serif" font-size="14" fill="#000000">HTTP_adapter</text></g><g class="node"><title>TCP_adapter</title><path stroke="#000000" fill="none" d="M 550,-318.8 m -61.98,0 a 61.98,18 0 1,0 123.96,0 a 61.98,18 0 1,0 -123.96,0"></path><text x="550" y="-314.6" text-anchor="middle" font-family="'Times-Roman',serif" font-size="14" fill="#000000">TCP_adapter</text></g><g class="node"><title>iotlite_agent_2</title><path stroke="#000000" fill="none" d="M 386,-234 m -68.94,0 a 68.94,18 0 1,0 137.88,0 a 68.94,18 0 1,0 -137.88,0"></path><text x="386" y="-229.8" text-anchor="middle" font-family="'Times-Roman',serif" font-size="14" fill="#000000">iotlite_agent_2</text></g><g class="node"><title>iotlite_group_agent</title><path stroke="#000000" fill="none" d="M 500,-162 m -86.84,0 a 86.84,18 0 1,0 173.68,0 a 86.84,18 0 1,0 -173.68,0"></path><text x="500" y="-157.8" text-anchor="middle" font-family="'Times-Roman',serif" font-size="14" fill="#000000">iotlite_group_agent</text></g><g class="node"><title>iotlite_agent_1</title><path stroke="#000000" fill="none" d="M 542,-234 m -68.94,0 a 68.94,18 0 1,0 137.88,0 a 68.94,18 0 1,0 -137.88,0"></path><text x="542" y="-229.8" text-anchor="middle" font-family="'Times-Roman',serif" font-size="14" fill="#000000">iotlite_agent_1</text></g><g class="node"><title>iotlite_agent</title><path stroke="#000000" fill="none" d="M 240,-234 m -59.13,0 a 59.13,18 0 1,0 118.26,0 a 59.13,18 0 1,0 -118.26,0"></path><text x="240" y="-229.8" text-anchor="middle" font-family="'Times-Roman',serif" font-size="14" fill="#000000">iotlite_agent</text></g><g class="node"><title>admin_panel</title><path stroke="#000000" fill="none" d="M 347,-90 m -60.84,0 a 60.84,18 0 1,0 121.68,0 a 60.84,18 0 1,0 -121.68,0"></path><text x="347" y="-85.8" text-anchor="middle" font-family="'Times-Roman',serif" font-size="14" fill="#000000">admin_panel</text></g><g class="node"><title>dashboard_agent</title><path stroke="#000000" fill="none" d="M 502,-90 m -76.43,0 a 76.43,18 0 1,0 152.86,0 a 76.43,18 0 1,0 -152.86,0"></path><text x="502" y="-85.8" text-anchor="middle" font-family="'Times-Roman',serif" font-size="14" fill="#000000">dashboard_agent</text></g><g class="node"><title>dashboard_page</title><path stroke="#000000" fill="none" d="M 502,-18 m -73.56,0 a 73.56,18 0 1,0 147.12,0 a 73.56,18 0 1,0 -147.12,0"></path><text x="502" y="-13.8" text-anchor="middle" font-family="'Times-Roman',serif" font-size="14" fill="#000000">dashboard_page</text></g><g class="node"><title>device_0</title><path stroke="#000000" fill="none" d="M 232,-467.6 m -45.79,0 a 45.79,18 0 1,0 91.58,0 a 45.79,18 0 1,0 -91.58,0"></path><text x="232" y="-463.4" text-anchor="middle" font-family="'Times-Roman',serif" font-size="14" fill="#000000">device_0</text></g><g class="node"><title>gateway0</title><path stroke="#000000" fill="none" d="M 232,-395.6 m -48.07,0 a 48.07,18 0 1,0 96.14,0 a 48.07,18 0 1,0 -96.14,0"></path><text x="232" y="-391.4" text-anchor="middle" font-family="'Times-Roman',serif" font-size="14" fill="#000000">gateway0</text></g><g class="node"><title>device_1</title><path stroke="#000000" fill="none" d="M 396,-467.6 m -45.79,0 a 45.79,18 0 1,0 91.58,0 a 45.79,18 0 1,0 -91.58,0"></path><text x="396" y="-463.4" text-anchor="middle" font-family="'Times-Roman',serif" font-size="14" fill="#000000">device_1</text></g><g class="node"><title>gateway1</title><path stroke="#000000" fill="none" d="M 396,-395.6 m -48.07,0 a 48.07,18 0 1,0 96.14,0 a 48.07,18 0 1,0 -96.14,0"></path><text x="396" y="-391.4" text-anchor="middle" font-family="'Times-Roman',serif" font-size="14" fill="#000000">gateway1</text></g><g class="node"><title>device_2</title><path stroke="#000000" fill="none" d="M 76,-467.6 m -45.79,0 a 45.79,18 0 1,0 91.58,0 a 45.79,18 0 1,0 -91.58,0"></path><text x="76" y="-463.4" text-anchor="middle" font-family="'Times-Roman',serif" font-size="14" fill="#000000">device_2</text></g><g class="node"><title>gateway2</title><path stroke="#000000" fill="none" d="M 76,-395.6 m -48.07,0 a 48.07,18 0 1,0 96.14,0 a 48.07,18 0 1,0 -96.14,0"></path><text x="76" y="-391.4" text-anchor="middle" font-family="'Times-Roman',serif" font-size="14" fill="#000000">gateway2</text></g><g class="node"><title>device_3</title><path stroke="#000000" fill="none" d="M 719,-467.6 m -45.79,0 a 45.79,18 0 1,0 91.58,0 a 45.79,18 0 1,0 -91.58,0"></path><text x="719" y="-463.4" text-anchor="middle" font-family="'Times-Roman',serif" font-size="14" fill="#000000">device_3</text></g><g class="node"><title>gateway3</title><path stroke="#000000" fill="none" d="M 719,-395.6 m -48.07,0 a 48.07,18 0 1,0 96.14,0 a 48.07,18 0 1,0 -96.14,0"></path><text x="719" y="-391.4" text-anchor="middle" font-family="'Times-Roman',serif" font-size="14" fill="#000000">gateway3</text></g><g class="node"><title>device_4</title><path stroke="#000000" fill="none" d="M 550,-467.6 m -45.79,0 a 45.79,18 0 1,0 91.58,0 a 45.79,18 0 1,0 -91.58,0"></path><text x="550" y="-463.4" text-anchor="middle" font-family="'Times-Roman',serif" font-size="14" fill="#000000">device_4</text></g><g class="node"><title>gateway4</title><path stroke="#000000" fill="none" d="M 550,-395.6 m -48.07,0 a 48.07,18 0 1,0 96.14,0 a 48.07,18 0 1,0 -96.14,0"></path><text x="550" y="-391.4" text-anchor="middle" font-family="'Times-Roman',serif" font-size="14" fill="#000000">gateway4</text></g><g class="relation" style="opacity: 1;"><title>iotlite_agent_2-&gt;iotlite_group_agent</title><path stroke="#000000" fill="none" d="M 411.87,-217.12 C 427.53,-207.5,447.72,-195.1,464.82,-184.6"></path><path class="solid" stroke="#000000" fill="#000000" d="M 466.75,-187.52 L 473.44,-179.31,463.09,-181.56 Z"></path></g><g class="relation" style="opacity: 1;"><title>iotlite_agent_1-&gt;iotlite_group_agent</title><path stroke="#000000" fill="none" d="M 531.83,-216.05 C 526.95,-207.92,521,-198,515.57,-188.94"></path><path class="solid" stroke="#000000" fill="#000000" d="M 518.51,-187.05 L 510.37,-180.28,512.51,-190.65 Z"></path></g><g class="relation" style="opacity: 1;"><title>iotlite_agent-&gt;iotlite_group_agent</title><path stroke="#000000" fill="none" d="M 282.93,-221.44 C 325.62,-209.95,391.48,-192.22,439.47,-179.3"></path><path class="solid" stroke="#000000" fill="#000000" d="M 440.67,-182.6 L 449.42,-176.62,438.86,-175.84 Z"></path></g><g class="relation" style="opacity: 1;"><title>CTWING_adapter-&gt;iotlite_agent_1</title><path stroke="#000000" fill="none" d="M 676.33,-297.84 C 648.11,-284.64,611.31,-267.42,583.36,-254.35"></path><path class="solid" stroke="#000000" fill="#000000" d="M 584.79,-251.15 L 574.25,-250.09,581.82,-257.49 Z"></path><path class="solid" stroke="#000000" fill="#000000" d="M 675.17,-301.16 L 685.71,-302.23,678.13,-294.82 Z"></path></g><g class="relation" style="opacity: 1;"><title>CTWING_adapter-&gt;iotlite_agent</title><path stroke="#000000" fill="none" d="M 664.23,-301.08 C 651.17,-297.73,637.19,-294.68,624,-292.8,589.23,-287.85,341.24,-296.14,308,-284.8,291.8,-279.27,276.2,-268.4,264.04,-258.21"></path><path class="solid" stroke="#000000" fill="#000000" d="M 266.03,-255.31 L 256.21,-251.35,261.42,-260.57 Z"></path><path class="solid" stroke="#000000" fill="#000000" d="M 663.45,-304.49 L 674.02,-303.68,665.25,-297.73 Z"></path></g><g class="relation" style="opacity: 1;"><title>ALI_adapter-&gt;iotlite_agent_1</title><path stroke="#000000" fill="none" d="M 119.02,-300.45 C 128.43,-297.34,138.43,-294.54,148,-292.8,182.56,-286.52,430.41,-295.07,464,-284.8,482.32,-279.2,500.5,-268.01,514.69,-257.65"></path><path class="solid" stroke="#000000" fill="#000000" d="M 517.12,-260.2 L 522.98,-251.37,512.9,-254.62 Z"></path><path class="solid" stroke="#000000" fill="#000000" d="M 117.78,-297.17 L 109.48,-303.77,120.08,-303.79 Z"></path></g><g class="relation" style="opacity: 1;"><title>ALI_adapter-&gt;iotlite_agent</title><path stroke="#000000" fill="none" d="M 114.47,-298.38 C 140.66,-285.16,175.19,-267.72,201.41,-254.49"></path><path class="solid" stroke="#000000" fill="#000000" d="M 203.31,-257.45 L 210.66,-249.81,200.15,-251.2 Z"></path><path class="solid" stroke="#000000" fill="#000000" d="M 112.67,-295.37 L 105.32,-303,115.82,-301.61 Z"></path></g><g class="relation" style="opacity: 1;"><title>MQTT_adapter-&gt;iotlite_agent_1</title><path stroke="#000000" fill="none" d="M 281.72,-300.91 C 292.88,-297.7,304.75,-294.75,316,-292.8,348.45,-287.17,432.64,-294.88,464,-284.8,482.11,-278.98,500.16,-267.88,514.32,-257.64"></path><path class="solid" stroke="#000000" fill="#000000" d="M 516.71,-260.23 L 522.61,-251.43,512.51,-254.63 Z"></path><path class="solid" stroke="#000000" fill="#000000" d="M 280.71,-297.55 L 272.13,-303.76,282.71,-304.26 Z"></path></g><g class="relation" style="opacity: 1;"><title>MQTT_adapter-&gt;iotlite_agent</title><path stroke="#000000" fill="none" d="M 234.63,-290.6 C 235.51,-281.49,236.49,-271.34,237.37,-262.23"></path><path class="solid" stroke="#000000" fill="#000000" d="M 240.87,-262.42 L 238.34,-252.13,233.9,-261.75 Z"></path><path class="solid" stroke="#000000" fill="#000000" d="M 231.14,-290.35 L 233.66,-300.64,238.1,-291.03 Z"></path></g><g class="relation" style="opacity: 1;"><title>HTTP_adapter-&gt;iotlite_agent_1</title><path stroke="#000000" fill="none" d="M 437.58,-298.57 C 446.4,-294.23,455.59,-289.51,464,-284.8,479.41,-276.18,495.97,-265.78,509.85,-256.72"></path><path class="solid" stroke="#000000" fill="#000000" d="M 512.12,-259.41 L 518.54,-250.99,508.27,-253.57 Z"></path><path class="solid" stroke="#000000" fill="#000000" d="M 436.03,-295.43 L 428.56,-302.94,439.09,-301.73 Z"></path></g><g class="relation" style="opacity: 1;"><title>HTTP_adapter-&gt;iotlite_agent</title><path stroke="#000000" fill="none" d="M 344.19,-301.06 C 332.03,-296.4,319.33,-290.92,308,-284.8,293.67,-277.06,278.95,-266.63,266.88,-257.32"></path><path class="solid" stroke="#000000" fill="#000000" d="M 269.01,-254.54 L 258.99,-251.1,264.67,-260.04 Z"></path><path class="solid" stroke="#000000" fill="#000000" d="M 343.19,-304.42 L 353.78,-304.61,345.62,-297.86 Z"></path></g><g class="relation" style="opacity: 1;"><title>TCP_adapter-&gt;iotlite_agent_1</title><path stroke="#000000" fill="none" d="M 547.37,-290.6 C 546.49,-281.49,545.51,-271.34,544.63,-262.23"></path><path class="solid" stroke="#000000" fill="#000000" d="M 548.1,-261.75 L 543.66,-252.13,541.13,-262.42 Z"></path><path class="solid" stroke="#000000" fill="#000000" d="M 543.9,-291.03 L 548.34,-300.64,550.86,-290.35 Z"></path></g><g class="relation" style="opacity: 1;"><title>TCP_adapter-&gt;iotlite_agent</title><path stroke="#000000" fill="none" d="M 505.43,-300.52 C 495.85,-297.44,485.69,-294.63,476,-292.8,439.27,-285.86,343.24,-297.26,308,-284.8,291.97,-279.13,276.48,-268.35,264.35,-258.27"></path><path class="solid" stroke="#000000" fill="#000000" d="M 266.36,-255.38 L 256.52,-251.47,261.78,-260.67 Z"></path><path class="solid" stroke="#000000" fill="#000000" d="M 504.56,-303.92 L 515.15,-303.8,506.8,-297.29 Z"></path></g><g class="relation" style="opacity: 1;"><title>iotlite_agent_2-&gt;admin_panel</title><path stroke="#000000" fill="none" d="M 381.08,-215.83 C 378.13,-205.46,374.31,-191.98,371,-180,365.28,-159.31,358.97,-135.86,354.25,-118.23"></path><path class="solid" stroke="#000000" fill="#000000" d="M 357.5,-116.84 L 351.54,-108.08,350.74,-118.64 Z"></path></g><g class="relation" style="opacity: 1;"><title>iotlite_group_agent-&gt;admin_panel</title><path stroke="#000000" fill="none" d="M 465.66,-145.29 C 442.64,-134.76,412.21,-120.83,387.93,-109.72"></path><path class="solid" stroke="#000000" fill="#000000" d="M 389.16,-106.44 L 378.61,-105.46,386.25,-112.81 Z"></path></g><g class="relation" style="opacity: 1;"><title>iotlite_group_agent-&gt;dashboard_agent</title><path stroke="#000000" fill="none" d="M 500.49,-143.7 C 500.71,-135.98,500.98,-126.71,501.23,-118.11"></path><path class="solid" stroke="#000000" fill="#000000" d="M 504.72,-118.2 L 501.51,-108.1,497.73,-118 Z"></path></g><g class="relation" style="opacity: 1;"><title>iotlite_agent_1-&gt;admin_panel</title><path stroke="#000000" fill="none" d="M 491.11,-221.78 C 463.16,-213.69,429.16,-200.51,404,-180,392.88,-170.93,374.06,-139.71,361.11,-116.8"></path><path class="solid" stroke="#000000" fill="#000000" d="M 364.06,-114.9 L 356.12,-107.88,357.95,-118.32 Z"></path></g><g class="relation" style="opacity: 1;"><title>iotlite_agent-&gt;admin_panel</title><path stroke="#000000" fill="none" d="M 252.69,-216.15 C 271.36,-191.39,306.33,-144.97,328.04,-116.16"></path><path class="solid" stroke="#000000" fill="#000000" d="M 331.1,-117.92 L 334.32,-107.82,325.51,-113.71 Z"></path></g><g class="relation" style="opacity: 1;"><title>dashboard_agent-&gt;dashboard_page</title><path stroke="#000000" fill="none" d="M 502,-71.7 C 502,-63.98,502,-54.71,502,-46.11"></path><path class="solid" stroke="#000000" fill="#000000" d="M 505.5,-46.1 L 502,-36.1,498.5,-46.1 Z"></path></g><g class="relation" style="opacity: 1;"><title>device_0-&gt;gateway0</title><path stroke="#000000" fill="none" d="M 232,-439.27 C 232,-434.29,232,-429.09,232,-424.11"></path><path class="solid" stroke="#000000" fill="#000000" d="M 235.5,-423.7 L 232,-413.7,228.5,-423.7 Z"></path><path class="solid" stroke="#000000" fill="#000000" d="M 228.5,-439.3 L 232,-449.3,235.5,-439.3 Z"></path></g><g class="relation" style="opacity: 1;"><title>gateway0-&gt;MQTT_adapter</title><path stroke="#000000" fill="none" d="M 232,-367.25 C 232,-360.78,232,-353.88,232,-347.41"></path><path class="solid" stroke="#000000" fill="#000000" d="M 235.5,-347.05 L 232,-337.05,228.5,-347.05 Z"></path><path class="solid" stroke="#000000" fill="#000000" d="M 228.5,-367.25 L 232,-377.25,235.5,-367.25 Z"></path></g><g class="relation" style="opacity: 1;"><title>device_1-&gt;gateway1</title><path stroke="#000000" fill="none" d="M 396,-439.27 C 396,-434.29,396,-429.09,396,-424.11"></path><path class="solid" stroke="#000000" fill="#000000" d="M 399.5,-423.7 L 396,-413.7,392.5,-423.7 Z"></path><path class="solid" stroke="#000000" fill="#000000" d="M 392.5,-439.3 L 396,-449.3,399.5,-439.3 Z"></path></g><g class="relation" style="opacity: 1;"><title>gateway1-&gt;HTTP_adapter</title><path stroke="#000000" fill="none" d="M 396,-367.25 C 396,-360.78,396,-353.88,396,-347.41"></path><path class="solid" stroke="#000000" fill="#000000" d="M 399.5,-347.05 L 396,-337.05,392.5,-347.05 Z"></path><path class="solid" stroke="#000000" fill="#000000" d="M 392.5,-367.25 L 396,-377.25,399.5,-367.25 Z"></path></g><g class="relation" style="opacity: 1;"><title>device_2-&gt;gateway2</title><path stroke="#000000" fill="none" d="M 76,-439.27 C 76,-434.29,76,-429.09,76,-424.11"></path><path class="solid" stroke="#000000" fill="#000000" d="M 79.5,-423.7 L 76,-413.7,72.5,-423.7 Z"></path><path class="solid" stroke="#000000" fill="#000000" d="M 72.5,-439.3 L 76,-449.3,79.5,-439.3 Z"></path></g><g class="relation" style="opacity: 1;"><title>gateway2-&gt;ALI_adapter</title><path stroke="#000000" fill="none" d="M 76,-367.25 C 76,-360.78,76,-353.88,76,-347.41"></path><path class="solid" stroke="#000000" fill="#000000" d="M 79.5,-347.05 L 76,-337.05,72.5,-347.05 Z"></path><path class="solid" stroke="#000000" fill="#000000" d="M 72.5,-367.25 L 76,-377.25,79.5,-367.25 Z"></path></g><g class="relation" style="opacity: 1;"><title>device_3-&gt;gateway3</title><path stroke="#000000" fill="none" d="M 719,-439.27 C 719,-434.29,719,-429.09,719,-424.11"></path><path class="solid" stroke="#000000" fill="#000000" d="M 722.5,-423.7 L 719,-413.7,715.5,-423.7 Z"></path><path class="solid" stroke="#000000" fill="#000000" d="M 715.5,-439.3 L 719,-449.3,722.5,-439.3 Z"></path></g><g class="relation" style="opacity: 1;"><title>gateway3-&gt;CTWING_adapter</title><path stroke="#000000" fill="none" d="M 719,-367.25 C 719,-360.78,719,-353.88,719,-347.41"></path><path class="solid" stroke="#000000" fill="#000000" d="M 722.5,-347.05 L 719,-337.05,715.5,-347.05 Z"></path><path class="solid" stroke="#000000" fill="#000000" d="M 715.5,-367.25 L 719,-377.25,722.5,-367.25 Z"></path></g><g class="relation" style="opacity: 1;"><title>device_4-&gt;gateway4</title><path stroke="#000000" fill="none" d="M 550,-439.27 C 550,-434.29,550,-429.09,550,-424.11"></path><path class="solid" stroke="#000000" fill="#000000" d="M 553.5,-423.7 L 550,-413.7,546.5,-423.7 Z"></path><path class="solid" stroke="#000000" fill="#000000" d="M 546.5,-439.3 L 550,-449.3,553.5,-439.3 Z"></path></g><g class="relation" style="opacity: 1;"><title>gateway4-&gt;TCP_adapter</title><path stroke="#000000" fill="none" d="M 550,-367.25 C 550,-360.78,550,-353.88,550,-347.41"></path><path class="solid" stroke="#000000" fill="#000000" d="M 553.5,-347.05 L 550,-337.05,546.5,-347.05 Z"></path><path class="solid" stroke="#000000" fill="#000000" d="M 546.5,-367.25 L 550,-377.25,553.5,-367.25 Z"></path></g></g></g></svg>