<svg version="1.1" xmlns="http://www.w3.org/2000/svg" width="346.84pt" height="399.2pt" viewBox="0 0 346.84 399.2"><style type="text/css">.dashed {stroke-dasharray: 5,5} .dotted {stroke-dasharray: 1,5} .overlay {fill: none; pointer-events: all}</style><g><g transform="translate(4, 395.20001220703125)"><polygon stroke="#fffffe" stroke-opacity="0" fill="#ffffff" points="-4,4 -4,-395.2 342.84,-395.2 342.84,4"></polygon><g class="node"><title>device</title><path stroke="#000000" fill="none" d="M 84.52,-373.2 m -36.48,0 a 36.48,18 0 1,0 72.96,0 a 36.48,18 0 1,0 -72.96,0"></path><text x="84.52" y="-369" text-anchor="middle" font-family="'Times-Roman',serif" font-size="14" fill="#000000">device</text></g><g class="node"><title>mqtt_adaptor</title><path stroke="#000000" fill="none" d="M 84.52,-284.4 m -62.56,0 a 62.56,18 0 1,0 125.12,0 a 62.56,18 0 1,0 -125.12,0"></path><text x="84.52" y="-280.2" text-anchor="middle" font-family="'Times-Roman',serif" font-size="14" fill="#000000">mqtt_adaptor</text></g><g class="node"><title>mqtt_device_agent</title><path stroke="#000000" fill="none" d="M 84.52,-195.6 m -84.53,0 a 84.53,18 0 1,0 169.06,0 a 84.53,18 0 1,0 -169.06,0"></path><text x="84.52" y="-191.4" text-anchor="middle" font-family="'Times-Roman',serif" font-size="14" fill="#000000">mqtt_device_agent</text></g><g class="node"><title>group_agent</title><path stroke="#000000" fill="none" d="M 84.52,-106.8 m -59.12,0 a 59.12,18 0 1,0 118.24,0 a 59.12,18 0 1,0 -118.24,0"></path><text x="84.52" y="-102.6" text-anchor="middle" font-family="'Times-Roman',serif" font-size="14" fill="#000000">group_agent</text></g><g class="node"><title>dash_agent</title><path stroke="#000000" fill="none" d="M 84.52,-18 m -54.46,0 a 54.46,18 0 1,0 108.92,0 a 54.46,18 0 1,0 -108.92,0"></path><text x="84.52" y="-13.8" text-anchor="middle" font-family="'Times-Roman',serif" font-size="14" fill="#000000">dash_agent</text></g><g class="relation" style="opacity: 1;"><title>device-&gt;mqtt_adaptor</title><path stroke="#000000" fill="none" d="M 84.52,-345.04 C 84.52,-334.72,84.52,-322.97,84.52,-312.64"></path><path class="solid" stroke="#000000" fill="#000000" d="M 88.02,-312.51 L 84.52,-302.51,81.02,-312.51 Z"></path><path class="solid" stroke="#000000" fill="#000000" d="M 81.02,-345.05 L 84.52,-355.05,88.02,-345.05 Z"></path><text x="138.56" y="-324.6" text-anchor="middle" font-family="'Times-Roman',serif" font-size="14" fill="#000000">协议适配器交互</text></g><g class="relation" style="opacity: 1;"><title>mqtt_adaptor-&gt;mqtt_device_agent</title><path stroke="#000000" fill="none" d="M 84.52,-256.24 C 84.52,-245.92,84.52,-234.17,84.52,-223.84"></path><path class="solid" stroke="#000000" fill="#000000" d="M 88.02,-223.71 L 84.52,-213.71,81.02,-223.71 Z"></path><path class="solid" stroke="#000000" fill="#000000" d="M 81.02,-256.25 L 84.52,-266.25,88.02,-256.25 Z"></path><text x="204.67" y="-235.8" text-anchor="middle" font-family="'Times-Roman',serif" font-size="14" fill="#000000">发送给设备agent 处理设备自身的逻辑</text></g><g class="relation" style="opacity: 1;"><title>mqtt_device_agent-&gt;group_agent</title><path stroke="#000000" fill="none" d="M 84.52,-167.44 C 84.52,-157.12,84.52,-145.37,84.52,-135.04"></path><path class="solid" stroke="#000000" fill="#000000" d="M 88.02,-134.91 L 84.52,-124.91,81.02,-134.91 Z"></path><text x="211.68" y="-147" text-anchor="middle" font-family="'Times-Roman',serif" font-size="14" fill="#000000">如果设备有属组 发送给属组 处理联动逻辑</text><path class="solid" stroke="#000000" fill="#000000" d="M 81.02,-167.45 L 84.52,-177.45,88.02,-167.45 Z"></path></g><g class="relation" style="opacity: 1;"><title>group_agent-&gt;dash_agent</title><path stroke="#000000" fill="none" d="M 84.52,-88.65 C 84.52,-76.52,84.52,-60.02,84.52,-46.12"></path><path class="solid" stroke="#000000" fill="#000000" d="M 88.02,-46.11 L 84.52,-36.11,81.02,-46.11 Z"></path><text x="142.26" y="-58.2" text-anchor="middle" font-family="'Times-Roman',serif" font-size="14" fill="#000000">处理完逻辑之后分发</text></g></g></g></svg>